<?xml version="1.0" standalone="no"?>
<!DOCTYPE svg PUBLIC "-//W3C//DTD SVG 20010904//EN"
 "http://www.w3.org/TR/2001/REC-SVG-20010904/DTD/svg10.dtd">
<svg version="1.0" xmlns="http://www.w3.org/2000/svg"
 width="602.000000pt" height="602.000000pt" viewBox="0 0 602.000000 602.000000"
 preserveAspectRatio="xMidYMid meet">
<metadata>
Created by potrace 1.11, written by Peter Selinger 2001-2013
</metadata>
<g transform="translate(0.000000,602.000000) scale(0.100000,-0.100000)"
fill="#000000" stroke="none">
<path d="M2690 5989 c-1310 -146 -2366 -1105 -2625 -2385 -78 -382 -78 -816 0
-1199 118 -585 395 -1097 825 -1525 461 -459 1041 -751 1681 -844 151 -22 717
-22 868 0 642 93 1220 384 1681 844 80 80 180 188 221 240 371 466 583 981
650 1580 17 152 15 489 -5 649 -84 689 -376 1291 -861 1776 -499 498 -1106
787 -1820 865 -106 12 -508 11 -615 -1z m-1255 -1693 c36 -23 33 -56 -21 -277
l-47 -189 -68 0 c-38 0 -69 3 -69 6 0 9 38 172 50 214 26 93 40 162 35 170 -3
6 -33 10 -65 10 l-59 0 10 33 c6 17 13 38 15 46 6 20 184 10 219 -13z m925 -1
c157 -9 256 -19 330 -34 101 -20 167 -32 200 -36 19 -2 57 -8 84 -15 27 -6 51
-9 53 -7 2 3 61 -10 131 -29 349 -91 422 -111 502 -144 25 -10 86 -32 135 -49
125 -42 154 -54 202 -79 23 -12 66 -31 96 -42 69 -26 372 -180 443 -225 30
-19 57 -35 60 -35 8 0 179 -114 182 -122 2 -5 8 -8 13 -8 6 0 15 -5 22 -10 7
-6 44 -34 82 -62 39 -28 72 -54 75 -57 3 -3 28 -24 55 -46 75 -59 215 -196
230 -226 43 -83 22 -212 -44 -272 -58 -53 -79 -60 -161 -61 -91 -1 -120 14
-242 125 -113 104 -215 189 -228 189 -5 0 -10 5 -10 10 0 6 -5 10 -11 10 -9 0
-76 46 -116 80 -7 5 -14 10 -17 10 -2 0 -42 23 -88 52 -46 28 -116 68 -157 90
-41 21 -79 42 -85 47 -6 5 -47 24 -91 42 -44 18 -82 37 -83 41 -2 4 -9 8 -16
8 -7 0 -26 6 -42 14 -82 39 -250 106 -267 106 -4 0 -28 9 -51 20 -96 43 -498
154 -730 200 -120 24 -128 26 -231 34 -38 4 -92 11 -120 16 -77 15 -145 20
-335 22 -159 1 -179 4 -220 24 -93 46 -129 117 -118 235 4 39 13 59 45 97 80
95 158 108 523 87z m-904 -796 c61 -16 87 -50 81 -107 -10 -92 -69 -120 -337
-162 -113 -17 -222 -36 -242 -41 -39 -10 -58 -33 -58 -69 l0 -22 275 7 c179 5
275 4 275 -2 0 -6 -5 -24 -11 -40 l-10 -31 -212 -7 c-117 -3 -270 -5 -342 -3
l-130 3 3 49 c2 27 12 66 22 85 35 70 79 93 215 115 55 9 159 25 230 37 72 11
140 27 153 35 35 23 39 44 11 67 -23 19 -36 19 -275 14 l-251 -6 10 39 c9 33
15 40 41 43 76 10 510 6 552 -4z m806 -95 c57 -3 132 -9 168 -15 36 -5 85 -11
110 -13 76 -7 201 -27 225 -36 13 -5 25 -6 28 -4 5 5 64 -10 427 -112 30 -9
60 -19 65 -24 6 -4 30 -15 55 -23 25 -9 70 -26 100 -37 30 -12 66 -25 80 -30
33 -11 88 -36 125 -58 17 -10 57 -29 90 -42 33 -13 82 -37 108 -52 26 -15 51
-28 55 -28 8 0 125 -71 132 -80 3 -4 12 -9 20 -13 8 -4 24 -13 34 -19 11 -7
43 -28 70 -46 206 -133 500 -391 532 -467 37 -90 4 -186 -84 -239 -41 -25 -54
-28 -102 -23 -70 6 -98 23 -208 128 -49 46 -102 95 -118 109 -57 48 -233 180
-240 180 -4 0 -22 11 -40 25 -18 14 -37 25 -42 25 -6 0 -12 4 -14 8 -3 9 -38
30 -198 116 -90 49 -120 64 -172 85 -66 27 -98 41 -150 65 -31 14 -65 28 -75
29 -10 2 -25 7 -33 10 -8 3 -40 13 -70 22 -53 16 -87 29 -120 45 -8 4 -89 24
-180 44 -91 20 -183 42 -205 47 -105 26 -147 34 -240 43 -130 13 -238 18 -382
18 -90 -1 -163 2 -163 6 0 4 -13 13 -29 20 -41 18 -79 87 -84 151 -4 46 0 59
27 99 48 72 85 86 246 92 74 3 138 4 142 2 4 -1 53 -5 110 -8z m-937 -702 c36
-12 54 -26 68 -49 19 -32 19 -34 -2 -77 -16 -31 -32 -48 -61 -61 -22 -10 -40
-22 -40 -28 0 -5 14 -22 31 -38 27 -25 31 -34 26 -65 -9 -54 -31 -79 -92 -109
-48 -22 -77 -28 -198 -35 -180 -12 -407 -13 -407 -1 0 4 5 22 11 38 l10 30
231 8 c127 4 242 12 255 18 29 13 54 52 47 72 -12 31 -46 37 -197 36 l-150 -2
7 33 c3 17 12 35 18 39 7 4 74 8 149 8 76 1 150 6 165 11 55 21 70 69 30 95
-21 14 -58 16 -251 13 l-226 -3 6 35 c4 19 9 38 11 42 3 5 119 8 257 8 211 -1
260 -4 302 -18z m748 -117 c32 -2 71 -6 85 -9 15 -3 59 -8 97 -12 98 -9 112
-11 185 -24 36 -6 91 -15 123 -21 32 -5 91 -20 130 -33 40 -13 99 -29 132 -36
134 -27 322 -87 350 -111 5 -5 15 -9 22 -9 32 0 335 -151 425 -211 32 -22 60
-39 63 -39 8 0 104 -70 201 -146 127 -101 269 -238 289 -280 27 -57 13 -116
-37 -165 -22 -21 -48 -40 -57 -40 -9 -1 -29 -3 -45 -5 -42 -5 -80 19 -177 110
-103 97 -183 166 -224 192 -16 10 -32 21 -35 24 -13 14 -179 119 -207 131 -18
8 -33 17 -33 20 0 4 -8 9 -17 13 -10 3 -25 10 -33 15 -26 18 -167 81 -179 81
-6 0 -11 4 -11 9 0 5 -10 11 -22 14 -13 3 -61 19 -108 37 -47 17 -101 36 -120
41 -19 6 -48 16 -65 24 -53 23 -119 43 -185 55 -36 6 -99 18 -140 26 -41 7
-106 18 -145 24 -38 5 -81 12 -95 15 -23 5 -95 13 -180 20 -19 2 -62 6 -95 9
-33 4 -99 8 -146 10 -101 3 -144 23 -172 76 -36 70 5 178 76 199 28 9 150 8
350 -4z"/>
</g>
</svg>
